<svg width="134" height="44" viewBox="0 0 134 44" fill="none" xmlns="http://www.w3.org/2000/svg">
<path d="M25.4206 5.82386V29.6094C21.7782 24.2163 12.7735 23.5464 8.72647 23.8857C8.72647 32.6621 12.3676 34.2018 16.2692 36.7243C19.8104 39.0139 21.6075 40.9187 22.7647 43.4819C22.7647 43.4819 10.5808 43.5226 10.4971 43.4819C3.10072 39.893 0 31.0086 0 23.8857H8.72647V0.608848C18.1359 -0.205203 23.7765 3.74634 25.4206 5.82386Z" fill="#00C479"/>
<path d="M25.4206 5.82386V29.6094C29.063 24.2163 38.0677 23.5464 42.1147 23.8857C42.1147 32.6621 38.4736 34.2018 34.572 36.7243C31.0308 39.0139 29.2337 40.9187 28.0765 43.4819C28.0765 43.4819 40.2604 43.5226 40.3441 43.4819C47.7405 39.893 50.8412 31.0086 50.8412 23.8857H42.1147V0.608848C32.7053 -0.205203 27.0647 3.74634 25.4206 5.82386Z" fill="#00C479"/>
<path d="M57.68 17.5V5.596H60.656V6.892H61.088C61.296 6.492 61.64 6.148 62.12 5.86C62.6 5.556 63.232 5.404 64.016 5.404C64.864 5.404 65.544 5.572 66.056 5.908C66.568 6.228 66.96 6.652 67.232 7.18H67.664C67.936 6.668 68.32 6.244 68.816 5.908C69.312 5.572 70.016 5.404 70.928 5.404C71.664 5.404 72.328 5.564 72.92 5.884C73.528 6.188 74.008 6.66 74.36 7.3C74.728 7.924 74.912 8.716 74.912 9.676V17.5H71.888V9.892C71.888 9.236 71.72 8.748 71.384 8.428C71.048 8.092 70.576 7.924 69.968 7.924C69.28 7.924 68.744 8.148 68.36 8.596C67.992 9.028 67.808 9.652 67.808 10.468V17.5H64.784V9.892C64.784 9.236 64.616 8.748 64.28 8.428C63.944 8.092 63.472 7.924 62.864 7.924C62.176 7.924 61.64 8.148 61.256 8.596C60.888 9.028 60.704 9.652 60.704 10.468V17.5H57.68ZM79.2963 22.3V19.66H85.7763C86.2243 19.66 86.4483 19.42 86.4483 18.94V15.94H86.0163C85.8883 16.212 85.6883 16.484 85.4163 16.756C85.1443 17.028 84.7763 17.252 84.3123 17.428C83.8483 17.604 83.2563 17.692 82.5363 17.692C81.6083 17.692 80.7923 17.484 80.0883 17.068C79.4003 16.636 78.8643 16.044 78.4803 15.292C78.0963 14.54 77.9043 13.676 77.9043 12.7V5.596H80.9283V12.46C80.9283 13.356 81.1443 14.028 81.5763 14.476C82.0243 14.924 82.6563 15.148 83.4723 15.148C84.4003 15.148 85.1203 14.844 85.6323 14.236C86.1443 13.612 86.4003 12.748 86.4003 11.644V5.596H89.4243V19.612C89.4243 20.428 89.1843 21.076 88.7043 21.556C88.2243 22.052 87.5843 22.3 86.7843 22.3H79.2963ZM62.624 41.836C61.072 41.836 59.8 41.5 58.808 40.828C57.816 40.156 57.216 39.196 57.008 37.948L59.792 37.228C59.904 37.788 60.088 38.228 60.344 38.548C60.616 38.868 60.944 39.1 61.328 39.244C61.728 39.372 62.16 39.436 62.624 39.436C63.328 39.436 63.848 39.316 64.184 39.076C64.52 38.82 64.688 38.508 64.688 38.14C64.688 37.772 64.528 37.492 64.208 37.3C63.888 37.092 63.376 36.924 62.672 36.796L62 36.676C61.168 36.516 60.408 36.3 59.72 36.028C59.032 35.74 58.48 35.348 58.064 34.852C57.648 34.356 57.44 33.716 57.44 32.932C57.44 31.748 57.872 30.844 58.736 30.22C59.6 29.58 60.736 29.26 62.144 29.26C63.472 29.26 64.576 29.556 65.456 30.148C66.336 30.74 66.912 31.516 67.184 32.476L64.376 33.34C64.248 32.732 63.984 32.3 63.584 32.044C63.2 31.788 62.72 31.66 62.144 31.66C61.568 31.66 61.128 31.764 60.824 31.972C60.52 32.164 60.368 32.436 60.368 32.788C60.368 33.172 60.528 33.46 60.848 33.652C61.168 33.828 61.6 33.964 62.144 34.06L62.816 34.18C63.712 34.34 64.52 34.556 65.24 34.828C65.976 35.084 66.552 35.46 66.968 35.956C67.4 36.436 67.616 37.092 67.616 37.924C67.616 39.172 67.16 40.14 66.248 40.828C65.352 41.5 64.144 41.836 62.624 41.836ZM75.8579 41.836C74.7059 41.836 73.6579 41.596 72.7139 41.116C71.7859 40.636 71.0499 39.94 70.5059 39.028C69.9619 38.116 69.6899 37.012 69.6899 35.716V35.38C69.6899 34.084 69.9619 32.98 70.5059 32.068C71.0499 31.156 71.7859 30.46 72.7139 29.98C73.6579 29.5 74.7059 29.26 75.8579 29.26C76.9939 29.26 77.9699 29.46 78.7859 29.86C79.6019 30.26 80.2579 30.812 80.7539 31.516C81.2659 32.204 81.6019 32.988 81.7619 33.868L78.8339 34.492C78.7699 34.012 78.6259 33.58 78.4019 33.196C78.1779 32.812 77.8579 32.508 77.4419 32.284C77.0419 32.06 76.5379 31.948 75.9299 31.948C75.3219 31.948 74.7699 32.084 74.2739 32.356C73.7939 32.612 73.4099 33.004 73.1219 33.532C72.8499 34.044 72.7139 34.676 72.7139 35.428V35.668C72.7139 36.42 72.8499 37.06 73.1219 37.588C73.4099 38.1 73.7939 38.492 74.2739 38.764C74.7699 39.02 75.3219 39.148 75.9299 39.148C76.8419 39.148 77.5299 38.916 77.9939 38.452C78.4739 37.972 78.7779 37.348 78.9059 36.58L81.8339 37.276C81.6259 38.124 81.2659 38.9 80.7539 39.604C80.2579 40.292 79.6019 40.836 78.7859 41.236C77.9699 41.636 76.9939 41.836 75.8579 41.836ZM84.3284 41.5V24.7H87.3524V31.06H87.7844C87.9124 30.804 88.1124 30.548 88.3844 30.292C88.6564 30.036 89.0164 29.828 89.4644 29.668C89.9284 29.492 90.5124 29.404 91.2164 29.404C92.1444 29.404 92.9524 29.62 93.6404 30.052C94.3444 30.468 94.8884 31.052 95.2724 31.804C95.6564 32.54 95.8484 33.404 95.8484 34.396V41.5H92.8244V34.636C92.8244 33.74 92.6004 33.068 92.1524 32.62C91.7204 32.172 91.0964 31.948 90.2804 31.948C89.3524 31.948 88.6324 32.26 88.1204 32.884C87.6084 33.492 87.3524 34.348 87.3524 35.452V41.5H84.3284ZM104.782 41.836C103.598 41.836 102.534 41.596 101.59 41.116C100.646 40.636 99.9015 39.94 99.3575 39.028C98.8135 38.116 98.5415 37.02 98.5415 35.74V35.356C98.5415 34.076 98.8135 32.98 99.3575 32.068C99.9015 31.156 100.646 30.46 101.59 29.98C102.534 29.5 103.598 29.26 104.782 29.26C105.966 29.26 107.03 29.5 107.974 29.98C108.918 30.46 109.662 31.156 110.206 32.068C110.75 32.98 111.022 34.076 111.022 35.356V35.74C111.022 37.02 110.75 38.116 110.206 39.028C109.662 39.94 108.918 40.636 107.974 41.116C107.03 41.596 105.966 41.836 104.782 41.836ZM104.782 39.148C105.71 39.148 106.478 38.852 107.086 38.26C107.694 37.652 107.998 36.788 107.998 35.668V35.428C107.998 34.308 107.694 33.452 107.086 32.86C106.494 32.252 105.726 31.948 104.782 31.948C103.854 31.948 103.086 32.252 102.478 32.86C101.87 33.452 101.566 34.308 101.566 35.428V35.668C101.566 36.788 101.87 37.652 102.478 38.26C103.086 38.852 103.854 39.148 104.782 39.148ZM119.477 41.836C118.293 41.836 117.229 41.596 116.285 41.116C115.341 40.636 114.597 39.94 114.053 39.028C113.509 38.116 113.237 37.02 113.237 35.74V35.356C113.237 34.076 113.509 32.98 114.053 32.068C114.597 31.156 115.341 30.46 116.285 29.98C117.229 29.5 118.293 29.26 119.477 29.26C120.661 29.26 121.725 29.5 122.669 29.98C123.613 30.46 124.357 31.156 124.901 32.068C125.445 32.98 125.717 34.076 125.717 35.356V35.74C125.717 37.02 125.445 38.116 124.901 39.028C124.357 39.94 123.613 40.636 122.669 41.116C121.725 41.596 120.661 41.836 119.477 41.836ZM119.477 39.148C120.405 39.148 121.173 38.852 121.781 38.26C122.389 37.652 122.693 36.788 122.693 35.668V35.428C122.693 34.308 122.389 33.452 121.781 32.86C121.189 32.252 120.421 31.948 119.477 31.948C118.549 31.948 117.781 32.252 117.173 32.86C116.565 33.452 116.261 34.308 116.261 35.428V35.668C116.261 36.788 116.565 37.652 117.173 38.26C117.781 38.852 118.549 39.148 119.477 39.148ZM128.508 41.5V24.7H131.532V41.5H128.508Z" fill="#00C479"/>
</svg>
